<svg id="logo" xmlns="http://www.w3.org/2000/svg" width="20" height="48" viewBox="0 0 20 48"><title>curlyRight</title><path d="M7.87,46H7.7l-.26,0Z" style="fill:#944200"/><path d="M7.37,46l-.16,0h.16Z" style="fill:#944200"/><path d="M7.76,46h0Z" style="fill:#944200"/><path d="M7.87,46H7.7l-.26,0Z" style="fill:#944200"/><path d="M7.21,2.51l.16,0H7.21Z" style="fill:#944200"/><path d="M7.76,2.5h0Z" style="fill:#944200"/><path d="M7.87,46H7.7l-.26,0Z" style="fill:#944200"/><path d="M7.37,46l-.16,0h.16Z" style="fill:#944200"/><path d="M7.87,46H7.7l-.26,0Z" style="fill:#944200"/><path d="M7.21,2.51l.16,0h-1l.35,0h.45Z" style="fill:#944200"/><path d="M7.37,46l-.16,0h.16Z" style="fill:#944200"/><path d="M7.37,2.53h-1l.35,0h.45Z" style="fill:#944200"/><path d="M7.37,46l-.16,0h.16Z" style="fill:#944200"/><path d="M7.87,46H7.7l-.26,0Z" style="fill:#944200"/><path d="M14.29,24.7l1.31-.45-1.31-.46a3.49,3.49,0,0,1-2.13-2,7.31,7.31,0,0,1-.43-3.15,51.42,51.42,0,0,1,1-6.65,31.43,31.43,0,0,0,.49-3.37A8.93,8.93,0,0,0,13,5.21a3.53,3.53,0,0,0-2.32-2.38,6,6,0,0,0-1.83-.32c-.32,0-.65,0-1,0H7.21l.16,0h-1a6.8,6.8,0,0,1,2.42.41A3.35,3.35,0,0,1,11,5.28a8.76,8.76,0,0,1,.11,3.31c-.13,1.11-.36,2.21-.6,3.31a52.49,52.49,0,0,0-1.27,6.7,8.31,8.31,0,0,0,.37,3.51,4.42,4.42,0,0,0,1.7,2.14,4.44,4.44,0,0,0-1.7,2.13,8.34,8.34,0,0,0-.37,3.52,52.49,52.49,0,0,0,1.27,6.7c.24,1.1.47,2.2.6,3.31A8.76,8.76,0,0,1,11,43.22a3.37,3.37,0,0,1-2.14,2.34,6.86,6.86,0,0,1-2.39.4H5.9a8.17,8.17,0,0,0,.86,0H7.7l-.26,0h.41c.33,0,.66,0,1,0a6.38,6.38,0,0,0,1.83-.31A3.55,3.55,0,0,0,13,43.29a9,9,0,0,0,.25-3.42,32.19,32.19,0,0,0-.49-3.37,51,51,0,0,1-1-6.64,7.36,7.36,0,0,1,.43-3.16A3.51,3.51,0,0,1,14.29,24.7ZM7.21,46h.16Z" style="fill:#944200"/><path d="M6.76,2.5l-.35,0H5.9A8.17,8.17,0,0,1,6.76,2.5Z" style="fill:#944200"/><path d="M7.21,2.51l.16,0h-1l.35,0h.45Z" style="fill:#944200"/></svg>