<svg id="logo" xmlns="http://www.w3.org/2000/svg" width="20" height="48" viewBox="0 0 20 48"><title>curlyRight-06</title><path d="M7.29,2.53a8.78,8.78,0,0,1,3.38.26,3.56,3.56,0,0,1,2.39,2.39,9.18,9.18,0,0,1,.3,3.45c-.09,1.15-.26,2.28-.45,3.4A50,50,0,0,0,12,18.65a7.15,7.15,0,0,0,.46,3,3.17,3.17,0,0,0,2,1.79l2.28.77L14.41,25a3.19,3.19,0,0,0-2,1.8,7.13,7.13,0,0,0-.46,3,49.89,49.89,0,0,0,.94,6.63c.19,1.12.36,2.25.45,3.39a9.17,9.17,0,0,1-.3,3.45,3.59,3.59,0,0,1-2.39,2.4A8.59,8.59,0,0,1,7.29,46a8.54,8.54,0,0,0,3.31-.44,3.3,3.3,0,0,0,2.07-2.33,8.75,8.75,0,0,0,.07-3.27,31.81,31.81,0,0,0-.64-3.29,50,50,0,0,1-1.35-6.72,8.29,8.29,0,0,1,.35-3.63,4.78,4.78,0,0,1,2.72-2.8V25a4.74,4.74,0,0,1-2.72-2.79,8.33,8.33,0,0,1-.35-3.64,50.27,50.27,0,0,1,1.35-6.72,30.81,30.81,0,0,0,.64-3.29,8.76,8.76,0,0,0-.07-3.27A3.28,3.28,0,0,0,10.6,3,8.74,8.74,0,0,0,7.29,2.53Z"/><path d="M6.51,2.53a8.73,8.73,0,0,1,3.37.29,3.55,3.55,0,0,1,2.33,2.39,8.93,8.93,0,0,1,.25,3.41c-.09,1.14-.28,2.26-.48,3.38a49.6,49.6,0,0,0-1,6.64,7.42,7.42,0,0,0,.43,3.14,3.46,3.46,0,0,0,2.12,2l1.4.49-1.4.49a3.47,3.47,0,0,0-2.12,2A7.44,7.44,0,0,0,11,29.86a49.85,49.85,0,0,0,1,6.64c.2,1.11.39,2.23.48,3.37a9,9,0,0,1-.25,3.42,3.55,3.55,0,0,1-2.33,2.39A8.54,8.54,0,0,1,6.51,46a8.63,8.63,0,0,0,3.32-.41A3.34,3.34,0,0,0,12,43.21a8.7,8.7,0,0,0,.11-3.3c-.13-1.11-.36-2.21-.6-3.31a49.25,49.25,0,0,1-1.28-6.7,8.09,8.09,0,0,1,.37-3.53,4.49,4.49,0,0,1,2.58-2.61v1a4.48,4.48,0,0,1-2.58-2.62,8,8,0,0,1-.37-3.52,49.39,49.39,0,0,1,1.28-6.71c.24-1.09.47-2.2.6-3.3A8.76,8.76,0,0,0,12,5.28,3.38,3.38,0,0,0,9.83,2.94,8.63,8.63,0,0,0,6.51,2.53Z" style="fill:#fff"/><path d="M7.29,2.53a8.73,8.73,0,0,1,3.37.29A3.55,3.55,0,0,1,13,5.21a8.93,8.93,0,0,1,.25,3.41A32,32,0,0,1,12.75,12a52.77,52.77,0,0,0-1,6.64,7.49,7.49,0,0,0,.44,3.15,3.49,3.49,0,0,0,2.12,2l1.37.48-1.37.48a3.44,3.44,0,0,0-2.12,2,7.45,7.45,0,0,0-.44,3.15,53.05,53.05,0,0,0,1,6.64,31.81,31.81,0,0,1,.49,3.37A9,9,0,0,1,13,43.29a3.56,3.56,0,0,1-2.33,2.38A8.54,8.54,0,0,1,7.29,46a8.42,8.42,0,0,0,3.32-.41,3.3,3.3,0,0,0,2.13-2.34,8.7,8.7,0,0,0,.12-3.3,31.54,31.54,0,0,0-.61-3.31A50.81,50.81,0,0,1,11,29.9a8,8,0,0,1,.37-3.52,4.49,4.49,0,0,1,2.58-2.61v1a4.49,4.49,0,0,1-2.58-2.61A8.05,8.05,0,0,1,11,18.6a50.5,50.5,0,0,1,1.27-6.7,31.54,31.54,0,0,0,.61-3.31,8.76,8.76,0,0,0-.12-3.31,3.34,3.34,0,0,0-2.13-2.34A8.6,8.6,0,0,0,7.29,2.53Z" style="fill:#944200"/></svg>