<svg xmlns="http://www.w3.org/2000/svg" xmlns:xlink="http://www.w3.org/1999/xlink" width="112.02" height="120" viewBox="0 0 112.02 120"><defs><clipPath id="clip-path"><path d="M28.63,2.6S14.39,2.5,11.2,7.79C7.89,13.28,13,37.91,13.14,42.48c.22,9.86,0,14.6-12.28,17.65,0,0,12.24,4.74,12.3,10.75.2,18.91-3.68,25.11-4,30.39-.32,5.54-1.43,18.13,16.12,16.13h61s11.09,2.11,15-3.75,1.51-19.54-1.52-36.8c0,0-1.31-8.06,1.62-11.81s10.7-4.94,10.7-4.94-9.34-.85-12.29-9.15c-2-5.62.77-12.69,1.36-17.71s3.54-23.25.06-26.35S99.19,2.75,88.42,2.63Z" style="fill:#0c0c0c"/></clipPath><clipPath id="clip-path-2"><path d="M26.83.72S14.57-2.49,8.15,4.63,9.4,38.36,9.37,42.92,14.23,54.12.86,60.13c0,0,11.3,2,12.18,8,2.09,14.29-5,27.52-3.94,32.71s-1.35,18.6,16.2,16.6h61s11.09,2.11,15-3.75,1.27-20.16-1.52-36.8c0,0-.64-7.59,2.29-11.35s10-5.4,10-5.4S98.62,56.6,99.84,51c.88-4.09,1.58-12.56,2.16-17.58s3.48-24.78,0-27.88S96,1,85.18.85Z" style="fill:none;clip-path:url(#clip-path)"/></clipPath></defs><title>NigmaSilmi_1</title><g id="Layer_6" data-name="Layer 6"><path d="M28.63,2.6S14.39,2.5,11.2,7.79C7.89,13.28,13,37.91,13.14,42.48c.22,9.86,0,14.6-12.28,17.65,0,0,12.24,4.74,12.3,10.75.2,18.91-3.68,25.11-4,30.39-.32,5.54-1.43,18.13,16.12,16.13h61s11.09,2.11,15-3.75,1.51-19.54-1.52-36.8c0,0-1.31-8.06,1.62-11.81s10.7-4.94,10.7-4.94-9.34-.85-12.29-9.15c-2-5.62.77-12.69,1.36-17.71s3.54-23.25.06-26.35S99.19,2.75,88.42,2.63Z" style="fill:#0c0c0c"/><g style="clip-path:url(#clip-path-2)"><path d="M25.67,117.41l-.49,0c-.43,0-.86.07-1.3.09a21.8,21.8,0,0,1-2.41-.22,27,27,0,0,0,3.12.11Z"/><path d="M25.67,2.64l-.89,0a28.17,28.17,0,0,0-3.31.12,20,20,0,0,1,2.43-.23c.46,0,.93.06,1.39.1Z"/><path d="M35.31,14.25a51.77,51.77,0,0,1-.56,9.67c-.21,1.59-.5,3.17-.79,4.75s-.54,3.16-.86,4.74c-.6,3.15-1.24,6.3-1.94,9.43s-1.45,6.27-2.32,9.37l-.67-.15h0a136,136,0,0,1,6.1-20.61,82.57,82.57,0,0,1,4.49-9.89c1.79-3.2,3.66-6.43,7-9a9,9,0,0,1,3-1.52,6.18,6.18,0,0,1,3.82.21l.22.09.1,0,.19.09c.11.07.13.06.38.22a4.35,4.35,0,0,1,.92.77,5.37,5.37,0,0,1,1.07,1.75,9.94,9.94,0,0,1,.6,3.25,27.77,27.77,0,0,1-.51,5.71c-.31,1.82-.72,3.6-1.17,5.35C52.56,35.5,50.26,42.25,48,49s-4.52,13.48-6.42,20.27a82.39,82.39,0,0,0-2.25,10.25,29.41,29.41,0,0,0-.34,5.1,9,9,0,0,0,1.09,4.5,3.62,3.62,0,0,0,1.51,1.34l.49.19.59.16a9.54,9.54,0,0,0,5.93-.37c3.07-1.21,5.57-3.82,7.56-6.65a48.54,48.54,0,0,0,5-9.31A79.73,79.73,0,0,0,64.54,64.4a71.34,71.34,0,0,1-2.76,10.34,50.37,50.37,0,0,1-4.55,9.77,26.75,26.75,0,0,1-3.35,4.34,15.32,15.32,0,0,1-4.56,3.31,11.35,11.35,0,0,1-5.7.94,10,10,0,0,1-1.44-.22c-.27,0-.45-.09-.71-.16a7.58,7.58,0,0,1-.76-.26,5.84,5.84,0,0,1-2.53-2,11.2,11.2,0,0,1-1.7-5.66,31.12,31.12,0,0,1,.19-5.56,87.68,87.68,0,0,1,2-10.67c1.7-7,3.9-13.79,6-20.59s4.34-13.55,6-20.35c.42-1.7.79-3.4,1.07-5.08a24.8,24.8,0,0,0,.4-4.91,6.28,6.28,0,0,0-.35-2,1.63,1.63,0,0,0-.31-.53l-.1-.08c.07,0-.12-.07-.19-.11l0,0c.17.09,0,0,.07,0h0l-.09,0a2.18,2.18,0,0,0-1.43-.09,5.09,5.09,0,0,0-1.7.87,16.34,16.34,0,0,0-3.27,3.44,44.33,44.33,0,0,0-2.83,4.26c-1.74,3-3.33,6.13-4.81,9.32-3,6.39-5.63,13-8.27,19.6h0l-.67-.15c.21-3.22.54-6.42.92-9.61s.82-6.37,1.3-9.55c.22-1.59.5-3.17.75-4.75s.5-3.17.83-4.74a52.45,52.45,0,0,1,2.67-9.31Z" style="fill:#ff1ff0"/><path d="M77.35,19.5A245.36,245.36,0,0,0,60.91,42.35c-4.94,7.91-9.48,16.21-12,25-1.19,4.35-1.79,9-.64,13a12.15,12.15,0,0,0,1.17,2.83l.09.17,0,.08-.08-.12-.12-.14a1.76,1.76,0,0,0-1.31-.53,1.67,1.67,0,0,0-.8.23c-.25.16-.26.21-.28.23s.13-.21.23-.41c.23-.44.46-1,.68-1.48.9-2.1,1.77-4.31,2.68-6.49a119.39,119.39,0,0,1,6.12-13,56.19,56.19,0,0,1,3.95-6.15,29,29,0,0,1,5.24-5.52A15.87,15.87,0,0,1,69.4,48a11.31,11.31,0,0,1,4.23-.89,11.16,11.16,0,0,1,4.27.83,11.9,11.9,0,0,1,3.61,2.28,13,13,0,0,1,3.83,7.35,24.26,24.26,0,0,1,0,7.7,47.64,47.64,0,0,1-4.54,14A70.47,70.47,0,0,1,73.18,91.5,60.79,60.79,0,0,1,63,101.83,31.72,31.72,0,0,1,50,108.27a17.29,17.29,0,0,1-7.44-.13A16.54,16.54,0,0,1,36,104.8a29.14,29.14,0,0,1-7.92-11.75A39.09,39.09,0,0,0,31.84,99a22.83,22.83,0,0,0,4.93,4.79,15.17,15.17,0,0,0,6.12,2.61,16,16,0,0,0,6.57-.32,29.7,29.7,0,0,0,11.66-6.56,57.53,57.53,0,0,0,9.19-10.14,70.11,70.11,0,0,0,6.94-11.82,47.73,47.73,0,0,0,4-12.85,20.08,20.08,0,0,0,0-6.34,8.72,8.72,0,0,0-2.55-5,7.73,7.73,0,0,0-5-2,8.7,8.7,0,0,0-5.18,2A23.94,23.94,0,0,0,64,58.11a50.37,50.37,0,0,0-3.7,5.68,130.73,130.73,0,0,0-6.13,12.45c-.94,2.14-1.83,4.29-2.83,6.49-.25.56-.51,1.11-.83,1.71a6,6,0,0,1-.72,1.08,2.48,2.48,0,0,1-.6.52,2,2,0,0,1-1,.3,2,2,0,0,1-1.51-.6c-.27-.31-.14-.17-.19-.23s-.23-.34-.14-.21l-.06-.11L46.19,85a16,16,0,0,1-1.45-3.7,21.87,21.87,0,0,1-.43-7.62,37.42,37.42,0,0,1,1.54-7.21,69.54,69.54,0,0,1,5.82-13.15,127.69,127.69,0,0,1,7.62-12A188.61,188.61,0,0,1,77.35,19.5Z" style="fill:#ff1fb0"/><path d="M27.74,2.64c-.81,0-1.63-.05-2.45,0h-.51a28.17,28.17,0,0,0-3.31.12,20,20,0,0,1,2.43-.23A32.78,32.78,0,0,1,27.74,2.64Z" style="fill:#fff"/><path d="M27.74,117.41a33.12,33.12,0,0,1-3.86.13,21.8,21.8,0,0,1-2.41-.22,27,27,0,0,0,3.12.11l.59,0C26,117.47,26.89,117.45,27.74,117.41Z" style="fill:#fff"/><path d="M75.75,109v-1.62a3.2,3.2,0,0,0,1.43-.71,3.38,3.38,0,0,0,.78-1.17,4.4,4.4,0,0,0,.29-1.71,2.19,2.19,0,0,1-1.78-.69,2.28,2.28,0,0,1-.58-1.47A2.15,2.15,0,0,1,78,99.45a2.39,2.39,0,0,1,1.89.94,3.89,3.89,0,0,1,.8,2.59,6,6,0,0,1-.63,2.7,6.56,6.56,0,0,1-1.7,2.17A5,5,0,0,1,75.75,109ZM78,97.77a2,2,0,0,1-1.5-.63,2,2,0,0,1-.63-1.5,2,2,0,0,1,.64-1.5,2.1,2.1,0,0,1,3,0,2.11,2.11,0,0,1,0,3A2,2,0,0,1,78,97.77Z" style="fill:#fff"/><path d="M35.49,12.11a1.5,1.5,0,0,1-1.5-1.5,1.44,1.44,0,0,1,.44-1.06,1.48,1.48,0,0,1,2.11,0A1.41,1.41,0,0,1,37,10.61a1.46,1.46,0,0,1-.44,1.06A1.47,1.47,0,0,1,35.49,12.11Z" style="fill:#fff"/><path d="M35.49,7.86a1.46,1.46,0,0,1-1.06-.44A1.47,1.47,0,0,1,34,6.36,1.49,1.49,0,0,1,36.54,5.3,1.41,1.41,0,0,1,37,6.36a1.5,1.5,0,0,1-1.5,1.5Z" style="fill:#fff"/><path d="M25.67,117.41l-.49,0c-.43,0-.86.07-1.3.09a21.8,21.8,0,0,1-2.41-.22,27,27,0,0,0,3.12.11Z"/><path d="M25.67,2.64l-.89,0a28.17,28.17,0,0,0-3.31.12,20,20,0,0,1,2.43-.23c.46,0,.93.06,1.39.1Z"/><path d="M21.47,117.32a21.8,21.8,0,0,0,2.41.22,19.55,19.55,0,0,1-7.16-.76,9.92,9.92,0,0,1-3.94-2.36,10.21,10.21,0,0,1-2.38-4,24.36,24.36,0,0,1-.77-9.13c.22-3,.7-6,1.2-9,1-5.9,2.29-11.76,2.48-17.52a19.25,19.25,0,0,0-1.19-8,8.38,8.38,0,0,0-5.25-4.72l-6-2,6-2a8.39,8.39,0,0,0,5.25-4.73,19.22,19.22,0,0,0,1.19-8c-.19-5.75-1.47-11.62-2.48-17.52-.5-2.95-1-5.94-1.2-9a24.32,24.32,0,0,1,.77-9.12,10.14,10.14,0,0,1,2.38-4,10.06,10.06,0,0,1,3.94-2.37,20.1,20.1,0,0,1,7.18-.76,20,20,0,0,0-2.43.23s0,0,0,0a16.82,16.82,0,0,0-4.51,1,8.28,8.28,0,0,0-3.1,2.6c-.94,1.06-1,2.55-1.33,3.93A21.86,21.86,0,0,0,12,18.73c.38,2.91.28,5.68,1,8.57.4,1.72.82,3.43,1.24,5.15A89.29,89.29,0,0,1,16,45.22a19.77,19.77,0,0,1-1.13,8.32,9.09,9.09,0,0,1-5.19,5l-.42.16L8.43,59,5.51,60l2.91,1,.8.28.43.16a9.12,9.12,0,0,1,5.18,5A19.77,19.77,0,0,1,16,74.84a91.21,91.21,0,0,1-1.77,12.79c-.42,1.72-.85,3.42-1.24,5.13a87.31,87.31,0,0,0-1.7,8.7,23.05,23.05,0,0,0,.18,8.65,9.35,9.35,0,0,0,1.94,3.75,9.16,9.16,0,0,0,3.54,2.41A17.19,17.19,0,0,0,21.47,117.32Z"/><path d="M19,116.37a17.9,17.9,0,0,0,5.64,1.06,27,27,0,0,1-3.12-.11,16.34,16.34,0,0,1-2.64-.63A9.8,9.8,0,0,1,15,114.31a10,10,0,0,1-2.31-4,24.21,24.21,0,0,1-.66-9c.25-3,.76-6,1.3-8.92.29-1.59.6-3.18.9-4.77A91.21,91.21,0,0,0,16,74.84a19.77,19.77,0,0,0-1.13-8.32,9.12,9.12,0,0,0-5.18-5l-.43-.16L8.42,61,5.51,60l2.92-1,.79-.28.42-.16a9.09,9.09,0,0,0,5.19-5A19.77,19.77,0,0,0,16,45.22a89.29,89.29,0,0,0-1.77-12.77c-.3-1.6-.61-3.2-.9-4.8-.54-2.94-1-5.91-1.3-8.92a24.24,24.24,0,0,1,.66-9A10,10,0,0,1,15,5.74a9.67,9.67,0,0,1,3.87-2.37,15.52,15.52,0,0,1,2.59-.63s0,0,0,0a28.17,28.17,0,0,1,3.31-.12A18.23,18.23,0,0,0,19,3.69a9.38,9.38,0,0,0-3.61,2.4,9.41,9.41,0,0,0-2,3.8A23.53,23.53,0,0,0,13,18.63c.36,2.93,1,5.84,1.62,8.75C15.92,33.19,17.51,39,18,45.09a21.91,21.91,0,0,1-1,9.34,11.55,11.55,0,0,1-2.68,4.19A11.18,11.18,0,0,1,12.65,60a10.63,10.63,0,0,1,1.74,1.41,11.39,11.39,0,0,1,2.68,4.19A21.85,21.85,0,0,1,18,75c-.52,6.11-2.11,11.9-3.39,17.72-.65,2.9-1.26,5.81-1.62,8.75a23.47,23.47,0,0,0,.29,8.73A8.89,8.89,0,0,0,19,116.37Z" style="fill:#f7f7f7"/><path d="M91.54,2.74a21.8,21.8,0,0,0-2.41-.22,19.55,19.55,0,0,1,7.16.76,9.92,9.92,0,0,1,3.94,2.36,10.21,10.21,0,0,1,2.38,4,24.36,24.36,0,0,1,.77,9.13c-.22,3-.7,6-1.2,9-1,5.9-2.29,11.76-2.48,17.52a19.25,19.25,0,0,0,1.19,8A8.38,8.38,0,0,0,106.14,58l6,2-6,2a8.39,8.39,0,0,0-5.25,4.73,19.22,19.22,0,0,0-1.19,8c.19,5.75,1.47,11.62,2.48,17.52.5,3,1,5.94,1.2,9a24.32,24.32,0,0,1-.77,9.12,9.49,9.49,0,0,1-6.32,6.37,20.1,20.1,0,0,1-7.18.76,20,20,0,0,0,2.43-.23s0,0,0,0a16.82,16.82,0,0,0,4.51-1,8.71,8.71,0,0,0,5.48-6.17,23,23,0,0,0,.18-8.65,87.87,87.87,0,0,0-1.7-8.7c-.4-1.72-.82-3.43-1.24-5.15a89.29,89.29,0,0,1-1.77-12.77,19.77,19.77,0,0,1,1.13-8.32,9.09,9.09,0,0,1,5.19-5l.42-.16.79-.28,2.92-1-2.91-1-.8-.28-.43-.16a9.12,9.12,0,0,1-5.18-5.05,19.77,19.77,0,0,1-1.13-8.32,91.21,91.21,0,0,1,1.77-12.79c.42-1.72.85-3.42,1.24-5.13a87.31,87.31,0,0,0,1.7-8.7,23.05,23.05,0,0,0-.18-8.65A9.35,9.35,0,0,0,99.64,6.2,9.16,9.16,0,0,0,96.1,3.79,17.19,17.19,0,0,0,91.54,2.74Z"/><path d="M94.06,3.69a17.9,17.9,0,0,0-5.64-1.06,27,27,0,0,1,3.12.11,16.34,16.34,0,0,1,2.64.63,9.8,9.8,0,0,1,3.87,2.38,10,10,0,0,1,2.31,3.95,24.21,24.21,0,0,1,.66,9c-.25,3-.76,6-1.3,8.92-.29,1.59-.6,3.18-.9,4.77a91.21,91.21,0,0,0-1.77,12.79,19.77,19.77,0,0,0,1.13,8.32,9.12,9.12,0,0,0,5.18,5.05l.43.16.8.28,2.91,1-2.92,1-.79.28-.42.16a9.09,9.09,0,0,0-5.19,5,19.77,19.77,0,0,0-1.13,8.32,89.29,89.29,0,0,0,1.77,12.77c.3,1.6.61,3.2.9,4.8.54,2.94,1,5.91,1.3,8.92a24.24,24.24,0,0,1-.66,9,10,10,0,0,1-2.31,3.95,9.67,9.67,0,0,1-3.87,2.37,15.52,15.52,0,0,1-2.59.63s0,0,0,0a28.17,28.17,0,0,1-3.31.12,18.23,18.23,0,0,0,5.83-1.07,8.85,8.85,0,0,0,5.64-6.2,23.53,23.53,0,0,0,.29-8.74c-.36-2.93-1-5.84-1.62-8.75C97.09,86.87,95.5,81.07,95,75a21.91,21.91,0,0,1,1-9.34,11.55,11.55,0,0,1,2.68-4.19A11.18,11.18,0,0,1,100.36,60a10.63,10.63,0,0,1-1.74-1.41,11.39,11.39,0,0,1-2.68-4.19,21.85,21.85,0,0,1-1-9.33c.52-6.11,2.11-11.9,3.39-17.72.65-2.9,1.26-5.81,1.62-8.75A23.47,23.47,0,0,0,99.7,9.9a9.34,9.34,0,0,0-2-3.8A9.3,9.3,0,0,0,94.06,3.69Z" style="fill:#f7f7f7"/><path d="M27.74,2.64c-.81,0-1.63-.05-2.45,0h-.51a28.17,28.17,0,0,0-3.31.12,20,20,0,0,1,2.43-.23A32.78,32.78,0,0,1,27.74,2.64Z" style="fill:#fff"/><path d="M27.74,117.41a33.12,33.12,0,0,1-3.86.13,21.8,21.8,0,0,1-2.41-.22,27,27,0,0,0,3.12.11l.59,0C26,117.47,26.89,117.45,27.74,117.41Z" style="fill:#fff"/><path d="M64.54,64.4a70.11,70.11,0,0,1-2.77,10.34,49.79,49.79,0,0,1-4.55,9.77,26.14,26.14,0,0,1-3.34,4.34,15.11,15.11,0,0,1-4.56,3.3,11.25,11.25,0,0,1-5.7.95,10.37,10.37,0,0,1-1.45-.22c-.26,0-.44-.09-.7-.16a6.81,6.81,0,0,1-.76-.26,5.79,5.79,0,0,1-2.53-2,11.2,11.2,0,0,1-1.7-5.66,32.08,32.08,0,0,1,.18-5.56,87.7,87.7,0,0,1,2-10.67c1.7-7,3.89-13.79,6-20.59s4.35-13.55,6-20.35c.41-1.7.79-3.4,1.06-5.08a24.84,24.84,0,0,0,.41-4.91,6.28,6.28,0,0,0-.35-2,1.62,1.62,0,0,0-.32-.53L51.43,15h0l-.18-.1h0l-.08,0a2.18,2.18,0,0,0-1.43-.09,5,5,0,0,0-1.7.87,16.34,16.34,0,0,0-3.27,3.44,42.54,42.54,0,0,0-2.83,4.26c-1.74,3-3.33,6.13-4.81,9.32-3,6.38-5.63,13-8.26,19.56a.06.06,0,0,1,0,0l-.67-.15c.2-3.22.54-6.42.92-9.61s.82-6.37,1.29-9.55c.23-1.59.51-3.17.76-4.75s.5-3.17.83-4.74a52.45,52.45,0,0,1,2.67-9.31l.68.11a51.77,51.77,0,0,1-.56,9.67c-.21,1.59-.51,3.17-.79,4.75s-.55,3.16-.86,4.74c-.17.91-.35,1.83-.54,2.74q.81-2.37,1.7-4.71a84.25,84.25,0,0,1,4.5-9.89c1.79-3.2,3.65-6.43,7-9a9,9,0,0,1,3-1.52,6.15,6.15,0,0,1,3.81.21l.22.09.11,0,.18.09a4.29,4.29,0,0,1,.39.22,4.61,4.61,0,0,1,.92.77,5.62,5.62,0,0,1,1.07,1.74,10.31,10.31,0,0,1,.6,3.25,28.52,28.52,0,0,1-.51,5.72c-.32,1.82-.73,3.59-1.17,5.35C52.56,35.5,50.25,42.25,48,49s-4.51,13.48-6.41,20.27a84.28,84.28,0,0,0-2.26,10.25,30.41,30.41,0,0,0-.33,5.1,9,9,0,0,0,1.09,4.5,3.62,3.62,0,0,0,1.51,1.34c.15.07.32.13.49.19l.59.16a9.46,9.46,0,0,0,1.18.23,9.32,9.32,0,0,0,4.75-.6c3.07-1.21,5.56-3.82,7.56-6.65a48.54,48.54,0,0,0,5-9.31A81.91,81.91,0,0,0,64.54,64.4Z" style="fill:#ff1ff0"/><path d="M85.34,57.55a13,13,0,0,0-3.83-7.35,11.82,11.82,0,0,0-3.62-2.28,11.08,11.08,0,0,0-4.26-.83A11.31,11.31,0,0,0,69.4,48a15.64,15.64,0,0,0-3.51,2.08,28.92,28.92,0,0,0-5.24,5.51,59,59,0,0,0-4,6.16,118.43,118.43,0,0,0-6.11,13c-.79,1.89-1.54,3.79-2.32,5.63-1.14-4-.54-8.64.65-13,2.51-8.78,7.06-17.08,12-25A245.36,245.36,0,0,1,77.35,19.5,188.7,188.7,0,0,0,59.28,41.27a127.6,127.6,0,0,0-7.61,12,68.91,68.91,0,0,0-5.82,13.15,37.42,37.42,0,0,0-1.54,7.21,21.87,21.87,0,0,0,.43,7.62A15.94,15.94,0,0,0,46.18,85l.12.22.05.08h0v0a1.46,1.46,0,0,0,.14.21c.05.06-.09-.08.19.23a2,2,0,0,0,2.5.3,2.6,2.6,0,0,0,.61-.52,5.83,5.83,0,0,0,.71-1.08c.33-.6.58-1.15.84-1.71,1-2.2,1.89-4.35,2.83-6.5a131.67,131.67,0,0,1,6.12-12.44A54.47,54.47,0,0,1,64,58.1a24.51,24.51,0,0,1,4.47-4.66,8.68,8.68,0,0,1,5.18-2,7.7,7.7,0,0,1,4.94,2,8.73,8.73,0,0,1,2.56,5,20.08,20.08,0,0,1,0,6.34,48.23,48.23,0,0,1-4,12.85,69.39,69.39,0,0,1-6.93,11.82,57.92,57.92,0,0,1-9.19,10.14A29.77,29.77,0,0,1,49.46,106a15.84,15.84,0,0,1-6.57.31,15.11,15.11,0,0,1-6.13-2.6A23.3,23.3,0,0,1,31.83,99,40.41,40.41,0,0,1,28,93.05c1.76,4.34,4.16,8.6,7.93,11.75a16.39,16.39,0,0,0,6.54,3.33,17.1,17.1,0,0,0,7.43.14A31.76,31.76,0,0,0,63,101.83,60.79,60.79,0,0,0,73.18,91.5a70.78,70.78,0,0,0,7.64-12.3,47.77,47.77,0,0,0,4.54-14A24.26,24.26,0,0,0,85.34,57.55ZM49.51,83.31h0v0Z" style="fill:#ff1fb0"/><path d="M49.53,83.33l0,0h0Z" style="fill:#ff1fb0"/><path d="M75.75,109v-1.62a3.2,3.2,0,0,0,1.43-.71,3.38,3.38,0,0,0,.78-1.17,4.4,4.4,0,0,0,.29-1.71,2.19,2.19,0,0,1-1.78-.69,2.28,2.28,0,0,1-.58-1.47A2.15,2.15,0,0,1,78,99.45a2.39,2.39,0,0,1,1.89.94,3.89,3.89,0,0,1,.8,2.59,6,6,0,0,1-.63,2.7,6.56,6.56,0,0,1-1.7,2.17A5,5,0,0,1,75.75,109ZM78,97.77a2,2,0,0,1-1.5-.63,2,2,0,0,1-.63-1.5,2,2,0,0,1,.64-1.5,2.1,2.1,0,0,1,3,0,2.11,2.11,0,0,1,0,3A2,2,0,0,1,78,97.77Z" style="fill:#fff"/><path d="M35.49,12.11a1.5,1.5,0,0,1-1.5-1.5,1.44,1.44,0,0,1,.44-1.06,1.48,1.48,0,0,1,2.11,0A1.41,1.41,0,0,1,37,10.61a1.46,1.46,0,0,1-.44,1.06A1.47,1.47,0,0,1,35.49,12.11Z" style="fill:#fff"/><path d="M35.49,7.86a1.46,1.46,0,0,1-1.06-.44A1.47,1.47,0,0,1,34,6.36,1.49,1.49,0,0,1,36.54,5.3,1.41,1.41,0,0,1,37,6.36a1.5,1.5,0,0,1-1.5,1.5Z" style="fill:#fff"/></g></g></svg>